# AST/ASF file generated using VICON BodyLanguage
# -----------------------------------------------
:version 1.10
:name VICON
:units
  mass 1.0
  length 0.45
  angle deg
:documentation
   .ast/.asf automatically generated from VICON data using
   VICON BodyBuilder and BodyLanguage model FoxedUp or BRILLIANT.MOD
:root
   order TX TY TZ RX RY RZ
   axis XYZ
   position 0 0 0  
   orientation 0 0 0 
:bonedata
  begin
     id 1 
     name lhipjoint
     direction 0.623415 -0.642378 0.445763 
     length 2.49859 
     axis 0 0 0  XYZ
  end
  begin
     id 2 
     name lfemur
     direction 0.34202 -0.939693 0  
     length 6.69689  
     axis 0 0 20  XYZ
    dof rx ry rz
    limits (-160.0 20.0)
           (-70.0 70.0)
           (-60.0 70.0)
  end
  begin
     id 3 
     name ltibia
     direction 0.34202 -0.939693 0   
     length 7.37574   
     axis 0 0 20   XYZ
    dof rx
    limits (-10.0 170.0)
  end
  begin
     id 4 
     name lfoot
     direction 0.084323 -0.231675 0.969132   
     length 2.09111   
     axis -90 7.62852e-016 20   XYZ
    dof rx rz
    limits (-45.0 90.0)
           (-70.0 20.0)
  end
  begin
     id 5 
     name ltoes
     direction 1.5357e-011 -4.21957e-011 1   
     length 1.04989   
     axis -90 7.62852e-016 20   XYZ
    dof rx
    limits (-90.0 20.0)
  end
  begin
     id 6 
     name rhipjoint
     direction -0.605402 -0.653903 0.45376   
     length 2.45455  
     axis 0 0 0  XYZ 
  end
  begin
     id 7 
     name rfemur
     direction -0.34202 -0.939693 0   
     length 6.64523   
     axis 0 0 -20   XYZ
    dof rx ry rz
    limits (-160.0 20.0)
           (-70.0 70.0)
           (-70.0 60.0)
  end
  begin
     id 8 
     name rtibia
     direction -0.34202 -0.939693 0   
     length 7.3339   
     axis 0 0 -20   XYZ
    dof rx
    limits (-10.0 170.0)
 end
 begin
     id 9 
     name rfoot
     direction -0.120854 -0.332043 0.93549   
     length 2.23135  
     axis -90 -7.62852e-016 -20   XYZ
    dof rx rz
    limits (-45.0 90.0)
           (-20.0 70.0)
  end
  begin
     id 10 
     name rtoes
     direction -1.53563e-011 -4.21914e-011 1   
     length 1.10614   
     axis -90 -7.62852e-016 -20   XYZ
    dof rx
    limits (-90.0 20.0)
  end
  begin
     id 11 
     name lowerback
     direction 0.0319682 0.998615 -0.0417941   
     length 2.02718   
     axis 0 0 0   XYZ
    dof rx ry rz
    limits (-20.0 45.0)
           (-30.0 30.0)
           (-30.0 30.0)
  end
  begin
     id 12 
     name upperback
     direction 7.63181e-005 0.995808 0.0914691   
     length 1.97539   
     axis 0 0 0   XYZ
    dof rx ry rz
    limits (-20.0 45.0)
           (-30.0 30.0)
           (-30.0 30.0)
  end
  begin
     id 13 
     name thorax
     direction -0.016423 0.993627 0.111514   
     length 2.00349   
     axis 0 0 0   XYZ
    dof rx ry rz
    limits (-20.0 45.0)
           (-30.0 30.0)
           (-30.0 30.0)
  end
  begin
     id 14 
     name lowerneck
     direction -0.174763 0.981668 -0.0760716   
     length 1.71436   
     axis 0 0 0   XYZ
    dof rx ry rz
    limits (-20.0 45.0)
           (-30.0 30.0)
           (-30.0 30.0)
  end
  begin
     id 15 
     name upperneck
     direction 0.345458 0.934587 -0.0848868   
     length 1.72805   
     axis 0 0 0   XYZ
    dof rx ry rz
    limits (-20.0 45.0)
           (-30.0 30.0)
           (-30.0 30.0)
  end
  begin
     id 16
     name head
     direction 0.13001 0.989848 -0.0574291  
     length 1.767  
     axis 0 0 0   XYZ
    dof rx ry rz
    limits (-20.0 45.0)
           (-30.0 30.0)
           (-30.0 30.0)
  end
  begin
     id 17 
     name lclavicle
     direction 0.952951 0.290122 0.0878234  
     length 3.54654  
     axis 0 0 0   XYZ
    dof ry rz
    limits (-20.0 10.0)
           (0.0 20.0)
  end
  begin
     id 18 
     name lhumerus
     direction 1 -4.48957e-011 -4.56525e-028   
     length 5.19807   
     axis 180 -30 -90   XYZ
    dof rx ry rz
    limits (-60.0 90.0)
           (-90.0 90.0)
           (-90.0 90.0)
  end
  begin
     id 19
     name lradius
     direction 1 -4.48979e-011 -2.0317e-027   
     length 3.0937   
     axis 180 -30 -90   XYZ
    dof rx
    limits (-10.0 170.0)
  end
  begin
     id 20
     name lwrist
     direction 1 -4.48953e-011 -3.05809e-027   
     length 1.54685   
     axis 8.48514e-016 90 90   XYZ
    dof ry
    limits (-180.0 0.0)
 end
  begin
     id 21 
     name lhand
     direction 1 -4.48952e-011 -6.11639e-027   
     length 0.672632   
     axis 3.9013e-015 90 90   XYZ
    dof rx rz
    limits (-90.0 90.0)
           (-45.0 45.0)
  end
  begin
     id 22 
     name lfingers
     direction 1 -4.48925e-011 -1.22426e-026   
     length 0.542293   
     axis 7.80276e-015 90 90   XYZ
    dof rx
    limits (0.0 90.0)
  end
  begin
     id 23
     name lthumb
     direction 0.707107 -6.3486e-011 0.707107   
     length 0.778628   
     axis -90 45 5.37419e-014   XYZ
    dof rx rz
    limits (-45.0 45.0)
           (-45.0 45.0)
  end
  begin
     id 24 
     name rclavicle
     direction -0.960732 0.273675 -0.0457849   
     length 3.52079  
     axis 0 0 0   XYZ 
    dof ry rz
    limits (-10.0 20.0)
           (-20.0 0.0)
  end
  begin
     id 25 
     name rhumerus
     direction -1 -4.48976e-011 -1.63613e-027  
     length 5.45222   
     axis 180 30 90   XYZ
    dof rx ry rz
    limits (-90.0 60.0)
           (-90.0 90.0)
           (-90.0 90.0)
  end
  begin
     id 26 
     name rradius
     direction -1 -4.48957e-011 -7.00033e-028   
     length 3.01284   
     axis 180 30 90   XYZ
    dof rx
    limits (-10.0 170.0)
  end
  begin
     id 27 
     name rwrist
     direction -1 -4.48983e-011 -3.05543e-027   
     length 1.50642   
     axis 8.48514e-016 -90 -90   XYZ
    dof ry
    limits (-180.0 0.0)
  end
  begin
     id 28
     name rhand
     direction -1 -4.48984e-011 -6.11072e-027   
     length 0.622296   
     axis 3.9013e-015 -90 -90   XYZ
    dof rx rz
    limits (-90.0 90.0)
           (-45.0 45.0)
  end
  begin
     id 29
     name rfingers
     direction -1 -4.48865e-011 -1.22637e-026   
     length 0.501711   
     axis 7.80276e-015 -90 -90   XYZ
    dof rx
    limits (0.0 90.0)
  end
  begin
     id 30
     name rthumb
     direction -0.707107 -6.34932e-011 0.707107   
     length 0.72036   
     axis -90 -45 -5.37419e-014   XYZ
    dof rx rz
    limits (-45.0 45.0)
           (-45.0 45.0)
  end
:hierarchy
  begin
    root lhipjoint rhipjoint lowerback
    lhipjoint lfemur
    lfemur ltibia
    ltibia lfoot
    lfoot ltoes
    rhipjoint rfemur
    rfemur rtibia
    rtibia rfoot
    rfoot rtoes
    lowerback upperback
    upperback thorax
    thorax lowerneck lclavicle rclavicle
    lowerneck upperneck
    upperneck head
    lclavicle lhumerus
    lhumerus lradius
    lradius lwrist
    lwrist lhand lthumb
    lhand lfingers
    rclavicle rhumerus
    rhumerus rradius
    rradius rwrist
    rwrist rhand rthumb
    rhand rfingers
  end

#!OML:ASF H:\Not Pregnant\Project 1\Capture day 1\Session 1\non-pregnant.ASF
:FULLY-SPECIFIED
:DEGREES
666
root 18.9272 16.0539 -8.14364 189.161 -7.28802 177.357
lowerback -0.799919 1.00422 -4.92922
upperback -6.39984 0.606001 -2.34354
thorax -6.2605 0.288357 0.306804
lowerneck 15.0076 -5.72841 -32.0102
upperneck 8.17529 -19.9518 35.79
head 7.16532 -12.7132 18.1684
rclavicle 1.11816e-014 5.40694e-014
rhumerus -43.5237 -23.6997 -65.751
rradius 23.6155
rwrist 28.3541
rhand -7.55757 -1.70304
rfingers 7.12502
rthumb 18.3345 -30.859
lclavicle 1.11816e-014 5.40694e-014
lhumerus -43.3378 -3.34722 82.3563
lradius 38.6786
lwrist 40.1362
lhand -15.2113 -13.2304
lfingers 7.12502
lthumb 10.961 16.4635
rfemur -44.3737 0.12169 19.4447
rtibia 34.5631
rfoot 3.98562 20.9282
rtoes 0.073272
lfemur 7.11384 -1.1598 -25.064
ltibia 15.6075
lfoot 16.4841 -32.7784
ltoes 32.1604
667
root 18.9176 16.0555 -8.29802 188.976 -7.16391 177.945
lowerback -0.928806 1.10496 -4.22198
upperback -6.43012 0.786874 -2.19358
thorax -6.20769 0.349078 0.0622073
lowerneck 14.9938 -5.64083 -32.0539
upperneck 8.37399 -19.8718 35.7074
head 7.1859 -12.6794 18.1637
rclavicle -1.58531e-014 -2.38542e-014
rhumerus -43.5709 -24.0453 -65.5617
rradius 23.2899
rwrist 28.9239
rhand -7.47776 -1.66646
rfingers 7.12502
rthumb 18.4113 -30.8152
lclavicle -1.58531e-014 -2.38542e-014
lhumerus -43.8164 -2.61471 81.9407
lradius 37.6311
lwrist 39.7003
lhand -15.3974 -13.2087
lfingers 7.12502
lthumb 10.7814 16.4947
rfemur -43.9375 0.278189 20.1902
rtibia 35.1385
rfoot 3.00602 20.9974
rtoes 0.50887
lfemur 6.73433 -1.53671 -24.5774
ltibia 17.4618
lfoot 16.3181 -32.3373
ltoes 30.9894
668
root 18.9063 16.0577 -8.45006 188.824 -6.96024 178.611
lowerback -1.1081 1.22698 -3.43608
upperback -6.47703 0.995807 -2.02365
thorax -6.14044 0.418867 -0.205849
lowerneck 14.9892 -5.54044 -32.105
upperneck 8.59265 -19.7863 35.6191
head 7.20844 -12.646 18.1613
rclavicle 1.87852e-014 1.27222e-014
rhumerus -43.6024 -24.4118 -65.3646
rradius 22.9661
rwrist 29.5717
rhand -7.3581 -1.61171
rfingers 7.12502
rthumb 18.5264 -30.7495
lclavicle 1.87852e-014 1.27222e-014
lhumerus -44.3065 -1.81557 81.4689
lradius 36.5484
lwrist 39.2375
lhand -15.6081 -13.1781
lfingers 7.12502
lthumb 10.5782 16.5356
rfemur -43.4845 0.351312 21.0589
rtibia 35.5543
rfoot 2.17234 21.2903
rtoes 0.996473
lfemur 6.16154 -1.69576 -23.9994
ltibia 19.5572
lfoot 16.3177 -31.891
ltoes 29.8453
669
root 18.8939 16.0609 -8.5976 188.721 -6.69533 179.318
lowerback -1.34318 1.36554 -2.60929
upperback -6.52244 1.22449 -1.84482
thorax -6.03617 0.495323 -0.486536
lowerneck 14.939 -5.45758 -32.146
upperneck 8.84305 -19.7129 35.5048
head 7.24956 -12.6127 18.1369
rclavicle 4.12478e-015 1.19271e-014
rhumerus -43.5708 -24.7561 -65.2289
rradius 22.6827
rwrist 30.1999
rhand -7.19615 -1.56297
rfingers 7.12502
rthumb 18.6822 -30.6858
lclavicle 4.12478e-015 1.19271e-014
lhumerus -44.7658 -0.954189 80.9397
lradius 35.4498
lwrist 38.7425
lhand -15.8456 -13.0967
lfingers 7.12502
lthumb 10.3491 16.6286
rfemur -43.0372 0.364092 21.9921
rtibia 35.8307
rfoot 1.47197 21.7553
rtoes 1.52635
lfemur 5.42497 -1.64897 -23.3522
ltibia 21.7888
lfoot 16.5997 -31.3901
ltoes 28.7649
670
root 18.8809 16.0648 -8.74135 188.66 -6.39743 180.01
lowerback -1.60323 1.51301 -1.80041
upperback -6.57553 1.45588 -1.67067
thorax -5.92325 0.572499 -0.760632
lowerneck 14.8715 -5.38349 -32.1866
upperneck 9.11719 -19.6536 35.3756
head 7.30522 -12.5853 18.1012
rclavicle 1.0138e-014 8.74653e-015
rhumerus -43.4956 -25.0434 -65.1638
rradius 22.4547
rwrist 30.7633
rhand -6.97495 -1.55902
rfingers 7.12502
rthumb 18.8949 -30.6613
lclavicle 1.0138e-014 8.74653e-015
lhumerus -45.2002 -0.0280592 80.3491
lradius 34.317
lwrist 38.2052
lhand -16.0993 -12.972
lfingers 7.12502
lthumb 10.1044 16.7654
rfemur -42.5927 0.314558 22.9202
rtibia 36.0042
rfoot 0.862783 22.3478
rtoes 2.08665
lfemur 4.59179 -1.43104 -22.6824
ltibia 24.0462
lfoot 17.2595 -30.7857
ltoes 27.8897
671
root 18.8675 16.0697 -8.88125 188.632 -6.09127 180.649
lowerback -1.86828 1.66218 -1.04415
upperback -6.6357 1.67836 -1.51348
thorax -5.81342 0.646136 -1.0212
lowerneck 14.7903 -5.31804 -32.2226
upperneck 9.4161 -19.6098 35.2309
head 7.3752 -12.5651 18.0534
rclavicle 2.59414e-014 1.51076e-014
rhumerus -43.3744 -25.2489 -65.1864
rradius 22.2812
rwrist 31.2219
rhand -6.7094 -1.57258
rfingers 7.12502
rthumb 19.1503 -30.6498
lclavicle 2.59414e-014 1.51076e-014
lhumerus -45.6131 0.947112 79.7017
lradius 33.1767
lwrist 37.6462
lhand -16.3713 -12.7728
lfingers 7.12502
lthumb 9.84198 16.9772
rfemur -42.1481 0.197103 23.7979
rtibia 36.0993
rfoot 0.326655 23.0228
rtoes 2.69512
lfemur 3.70453 -1.09616 -22.0305
ltibia 26.2578
lfoot 18.2876 -30.0701
ltoes 27.2243
672
root 18.8538 16.0762 -9.01796 188.62 -5.8121 181.207
lowerback -2.12306 1.80348 -0.366187
upperback -6.6972 1.87995 -1.38355
thorax -5.71039 0.711724 -1.26457
lowerneck 14.7089 -5.2586 -32.2489
upperneck 9.72943 -19.5822 35.0803
head 7.45494 -12.5544 17.9984
rclavicle -4.63665e-014 -3.18055e-015
rhumerus -43.2127 -25.3719 -65.2957
rradius 22.1633
rwrist 31.5612
rhand -6.40971 -1.59863
rfingers 7.12502
rthumb 19.4385 -30.647
lclavicle -4.63665e-014 -3.18055e-015
lhumerus -46.0096 1.94157 79.0087
lradius 32.0529
lwrist 37.0667
lhand -16.6569 -12.4592
lfingers 7.12502
lthumb 9.56635 17.3036
rfemur -41.6889 -0.00917496 24.5933
rtibia 36.1427
rfoot -0.161562 23.7387
rtoes 3.37736
lfemur 2.81576 -0.714608 -21.4279
ltibia 28.354
lfoot 19.6262 -29.2448
ltoes 26.7172
673
root 18.8407 16.0848 -9.15106 188.612 -5.57228 181.685
lowerback -2.34887 1.934 0.225765
upperback -6.75738 2.05933 -1.27945
thorax -5.62302 0.769558 -1.48567
lowerneck 14.6099 -5.21018 -32.2607
upperneck 10.0569 -19.5749 34.9333
head 7.55038 -12.5543 17.9384
rclavicle 1.21259e-014 3.97569e-015
rhumerus -43.0007 -25.3796 -65.5176
rradius 22.107
rwrist 31.7359
rhand -6.08831 -1.63858
rfingers 7.12502
rthumb 19.7475 -30.6555
lclavicle 1.21259e-014 3.97569e-015
lhumerus -46.3839 2.92632 78.2853
lradius 30.9633
lwrist 36.4663
lhand -16.9372 -12.0415
lfingers 7.12502
lthumb 9.29596 17.7335
rfemur -41.2088 -0.273243 25.3006
rtibia 36.1422
rfoot -0.611376 24.4318
rtoes 4.10917
lfemur 1.94055 -0.335952 -20.8724
ltibia 30.3021
lfoot 21.1821 -28.3453
ltoes 26.1887
674
root 18.8285 16.0963 -9.28176 188.595 -5.39849 182.092
lowerback -2.5497 2.04232 0.733755
upperback -6.8146 2.20376 -1.19311
thorax -5.54862 0.81368 -1.67723
lowerneck 14.5115 -5.16078 -32.2684
upperneck 10.3908 -19.5773 34.7979
head 7.65363 -12.5623 17.8838
rclavicle -2.33572e-014 1.51076e-014
rhumerus -42.7529 -25.2826 -65.8229
rradius 22.1061
rwrist 31.781
rhand -5.73968 -1.66745
rfingers 7.12502
rthumb 20.0826 -30.6495
lclavicle -2.33572e-014 1.51076e-014
lhumerus -46.7577 3.86727 77.5589
lradius 29.9436
lwrist 35.858
lhand -17.176 -11.506
lfingers 7.12502
lthumb 9.06556 18.2791
rfemur -40.6876 -0.610696 25.9297
rtibia 36.0993
rfoot -1.0533 25.0807
rtoes 4.8438
lfemur 1.09933 -0.0119835 -20.3564
ltibia 32.0848
lfoot 22.8264 -27.4641
ltoes 25.3862
